<?xml version="1.0" encoding="UTF-8"?>
<svg id="_图层_1" data-name="图层 1" xmlns="http://www.w3.org/2000/svg" viewBox="0 0 3070.66 597.45">
  <defs>
    <style>
      .cls-1 {
        fill: #f08437;
      }

      .cls-1, .cls-2, .cls-3, .cls-4, .cls-5, .cls-6, .cls-7, .cls-8, .cls-9, .cls-10, .cls-11 {
        stroke-width: 0px;
      }

      .cls-2 {
        fill: #e4c6a7;
      }

      .cls-3, .cls-12 {
        fill: #3e3a39;
      }

      .cls-12 {
        stroke: #fff;
        stroke-miterlimit: 10;
        stroke-width: .5px;
      }

      .cls-4 {
        fill: #f7f089;
      }

      .cls-5 {
        fill: #003a60;
      }

      .cls-6 {
        fill: #e83c22;
      }

      .cls-7 {
        fill: #e24c26;
      }

      .cls-8 {
        fill: #e60012;
      }

      .cls-9 {
        fill: #40220f;
      }

      .cls-10 {
        fill: #9e3724;
      }

      .cls-11 {
        fill: #f8f29e;
      }
    </style>
  </defs>
  <g>
    <path class="cls-7" d="m699.3,91.02c-96.83,2.2-169.25,27.89-186.04,60.21-11.91,22.92-9.66,43.36-9.66,43.36s2.05,18.67,15.69,36.47c37.27,48.64,155.82,50.21,176.42,50.48,41.81.55,112.05-3.12,157.01-35.88,23.23-16.92,29.06-33.84,30.6-38.94,0,0,6.23-20.68-2.51-45.53-13.63-38.75-86.24-67.08-181.5-70.18Z"/>
    <path class="cls-7" d="m692.85,458.28c-38.67.82-88.9,9.98-95.12,26.01-6.22,16.03,31.74,25.85,41.39,27.98,9.65,2.13,23.71,5.13,52.02,5.18,28.31.05,69.84.77,96.38-15.65,28.91-17.89-5.73-30.76-14.4-33.7-8.67-2.95-41.6-10.63-80.28-9.82Z"/>
    <path class="cls-10" d="m692.85,141.75c-38.67.82-88.9,9.98-95.12,26.01-6.22,16.03,31.74,25.85,41.39,27.98,9.65,2.13,23.71,5.13,52.02,5.18,28.31.05,69.84.77,96.38-15.65,28.91-17.89-5.73-30.76-14.4-33.7-8.67-2.95-41.6-10.63-80.28-9.82Z"/>
    <path class="cls-9" d="m697.7,471.15v-46.89l-2.28-8.37v-134.29h-3.42v134.29l-1.9,8.59v46.71c-16.02.62-28.38,4.58-28.38,9.37,0,5.22,14.66,9.46,32.74,9.46s32.74-4.24,32.74-9.46c0-4.91-12.94-8.94-29.49-9.41Z"/>
  </g>
  <g>
    <path class="cls-1" d="m247.72,258.32c-36.41-.9-86.62-8.59-87.75-45.23-1.13-36.64,44.71-46.06,44.71-46.06,0,0-37.39-4.82-28.35-45.84,9.05-41.01,97.7-44.63,117.61-44.63h14.17c19.9,0,108.56,3.62,117.61,44.63,9.05,41.01-28.35,45.84-28.35,45.84,0,0,45.84,9.42,44.71,46.06-1.13,36.64-51.34,44.33-87.75,45.23h-4.14"/>
    <path class="cls-3" d="m309.35,488.41l-27.13-.81s-88.98-.6-93.2,9.65v12.67s34.68,11.13,107.08,10.81c87.27,1.63,113.06-10,113.06-10v-12.67c-4.52-10.25-99.8-9.65-99.8-9.65Z"/>
    <path class="cls-12" d="m298.38,253.8c-35.85-.01-49.3,1.81-49.3,1.81,0,0-2.26,3.84,0,7.92,0,0,23.52,3.39,36.41,3.39l-.3,234.83s13.9,5.59,26.24,0l.21-234.83c13.25,0,37.43-3.39,37.43-3.39,2.32-4.07,0-7.92,0-7.92,0,0-10.2-1.99-50.68-1.81"/>
  </g>
  <g>
    <g>
      <path class="cls-8" d="m1102.87,96.53s-124.19-.76-126.46,134.79h252.93c-2.27-135.55-126.46-134.79-126.46-134.79Z"/>
      <path class="cls-8" d="m1090.56,86.5v7.38c-.06-.1,4.81-1.45,9.65-1.42,4.84.03,9.66,1.42,9.66,1.42v-7.38s-8.09-4.26-19.31,0Z"/>
    </g>
    <path class="cls-8" d="m1152.02,418.82c15.31-5.91,26.06-16.18,28.47-29.32,4.46-24.29-21.18-49.58-58.09-58.38,25.25-9.32,41.69-27.13,38.68-44.26-3.07-17.5-25.47-28.75-53.19-28.43v-24.27h-16.19v25.72c-.3.05-.59.09-.89.14-35.13,6.17-60.61,28.17-56.93,49.16,2.05,11.7,12.76,20.61,27.91,25.14-14.26,6.01-24.2,15.96-26.5,28.53-3.71,20.2,13.39,41.08,40.47,52.61-34.49,7.85-59.03,27.97-59.03,51.56,0,30.43,40.81,55.09,91.16,55.09s91.16-24.67,91.16-55.09c0-20.75-18.99-38.81-47.02-48.2Z"/>
  </g>
  <path class="cls-5" d="m3002.63,267.38h-202.76c.43,52.51-1.22,104.92,19.28,154.16,11.71,32.94,38.82,12.4,40.39,26.37,1.24,9.28.17,12.35-8.61,14.05-55.11,11.21-112.96,12.4-168.09.4-7.93-1.67-6.97-7.85-6.88-13.55.09-5.85,4.76-6.44,8.61-6.17,57.44,3.4,49.69-135.94,50.04-175.15h-201.77c-13.79-170.82,191.29-138.4,303.55-138.6,94.91-1.01,172.38,29.29,166.24,138.48Z"/>
  <path class="cls-6" d="m2316.13,84.89c85.9,6.1,153.08,77.97,151.56,164.26-45.05-.11-88.49.27-133.27-.19-5.81-.07-7.59,2.3-8.61,7.26-11.56,69.88-20.49,212.7,61.49,241.54,9.08,3.26,20.16.66,26.86,9.14-.53,20.7-202.69,23.58-201.9,2.6.76-5,8.07-7.44,12.87-7.38,91.03-12.77,81.66-164.95,72.59-232.86-3.14-20-2.7-20.07-22.9-20.08-44.12-.02-88.26-.05-132.38-.06-4.77-82.28,62.19-160.6,159.02-164.64-10.89-22.09,27.75-19.87,14.67.41Z"/>
  <path class="cls-2" d="m1881.24,108.45c44.06,61.94,86.82,120.8,131.22,181.91,4.47,6.14,1.89,9.88-3.53,11.4-75.6,21.31-196.08,19.93-271.26-3.1-8.2-3.14-8.31-6.59-2.94-13.64,44.16-58.56,89.31-116.39,132.85-175.39-194.71-.59-246.24,287.37-55.13,345.9,4.11-15,.6-17.42,18.51-21.62,26.89-6.53,53.84-5.64,80.76.26,12.21,2.68,19.2,9.34,16.67,24.43,9.7-4.03,17.7-7.22,25.57-10.67,4.9-2.14,9.96-4.09,12.95,2.05,3,6.17-1.5,9.25-6.45,11.31-8.51,3.54-16.98,7.24-25.71,10.14-16.01,5.37,8.8,31.66-21.06,36.72-28.36,7.02-56.9,7.69-85.29.07-14.74-3.56-16.65-8.8-15.59-23.26q.1-12.54-11.92-16.86c-83.5-30.06-134.32-113.67-123.86-202.47,12.24-111.41,129.3-197.93,241.57-165.76,5.2,1.24,9.86,3.73,8.01,10.34-1.72,6.14-6.58,5.71-11.6,4.7-10.53-2.1-21.09-4.04-33.77-6.44Z"/>
  <g>
    <path class="cls-11" d="m1572.69,208.8c-19.3,1.04-39.08,1.31-58.48,2.06-2.11.1-5.35,1.06-6.05,2.56-10.43,22.36-28.01,34.85-52.52,38.34v180.63c36.43,4.87,64.72,36.26,64.62,73.13.14,5.5-3.6,6.92-7.27,7.67-41.95,10.92-85.65,11.37-127.53-.28-11.61-3.07-12.94-5.41-10.93-17.26,5.75-35.31,31.2-58.67,66.25-63.45v-180.75c-19.03-2.63-36.46-14.43-45.93-31.46-2.51-8.89-8.52-10.27-16.67-10.05-13.03.36-26.08-.37-39.13-.46-5.12-.04-7.17-1.63-7.1-7.37.17-63.39,50.91-110.71,111.31-118.72.67-1.35,4.89-11.43,6.28-12.96,1.28-1.4,2.99-1.65,4.85,0,2.08,1.83,6.62,12.49,6.62,12.49,62.29,8.24,117.24,59.97,111.68,125.89Z"/>
    <path class="cls-10" d="m1443.25,83.39s11.02-1.23,17.76-.48l-6.75-13.63s-2.09-2.51-5.11,0l-5.9,14.11Z"/>
    <path class="cls-10" d="m1455.63,432.39s-2.72-.65-7.43-.82c-4.71-.17-7.43.82-7.43.82v-180.94s4.14.97,7.43.97,7.43-.97,7.43-.97v180.94Z"/>
  </g>
  <ellipse class="cls-4" cx="1872" cy="443.57" rx="49.36" ry="10.89"/>
</svg>